# xmcd CD database file
#
# Track frame offsets:
#	180
#	13633
#	25386
#	34478
#	48531
#	61835
#	72518
#	85581
#	96419
#	109022
#	121978
#	133358
#	146762
#	160778
#	174846
#	187065
#
# Disc length: 2661 seconds
#
# Revision: 0
# Processed by: cddbd v1.5.2PL0 Copyright (c) Steve Scherf et al.
# Submitted via: CDex 1.51
#
DISCID=e50a6310
DTITLE=Various Artist - Golden Hits Of Jazz
DYEAR=1900
DGENRE=Jazz
TTITLE0=Dickie Valentine - Broken Wings
TTITLE1=Rusty Drapper - Gambler's Guitar
TTITLE2=The Fourth Knights - Get So Lonely (Oh Baby Mine)
TTITLE3=Alma Cogan - Meet Me On The Corner
TTITLE4=Bing Crosby - My Melancholy Baby
TTITLE5=Johnnie Ray - Somebody Stole My Gal
TTITLE6=The Hilltoppters - To Be Alone
TTITLE7=Frankie Laine - Your Cheatin' Heart
TTITLE8=Louis Armstrong - Baby, Won't You Please Come Home?
TTITLE9=Rosemary Clooney - Don't Worry 'bout Me
TTITLE10=Peggy Lee - I Can't Give You Anything But Love
TTITLE11=Billie Holiday - Night And Day
TTITLE12=Art Tatum - Tea For Two
TTITLE13=Grace Fields - Red Sails In The Sunset
TTITLE14=Jo Stafford - That's For Me
TTITLE15=Mel Torme - The Old Master Painter
EXTD=
EXTT0=
EXTT1=
EXTT2=
EXTT3=
EXTT4=
EXTT5=
EXTT6=
EXTT7=
EXTT8=
EXTT9=
EXTT10=
EXTT11=
EXTT12=
EXTT13=
EXTT14=
EXTT15=
PLAYORDER=
